<svg xmlns="http://www.w3.org/2000/svg" width="436.514" height="130.695" viewBox="0 0 436.514 130.695">
  <g id="Group_13" data-name="Group 13" transform="translate(-98.685 -1578.734)">
    <g id="Group_12" data-name="Group 12" transform="translate(98.685 1578.734)">
      <path id="Path_17" data-name="Path 17" d="M-2876.288,2142.34l.208.067,39,12.366a3.855,3.855,0,0,1,.41-1.381l11.054-21.322a3.87,3.87,0,0,0-2.267-5.471l-22.891-7.255a3.868,3.868,0,0,1-2.52-2.52l-7.255-22.892a3.87,3.87,0,0,0-5.471-2.267l-21.322,11.055a3.862,3.862,0,0,1-1.384.411Z" transform="translate(2953.068 -2091.225)" fill="#f93640"/>
      <path id="Path_18" data-name="Path 18" d="M-3096.607,2153.38a3.863,3.863,0,0,1,.411,1.381l39.211-12.433,12.43-39.209a3.87,3.87,0,0,1-1.376-.411l-21.322-11.059a3.87,3.87,0,0,0-5.471,2.266l-7.26,22.9a3.87,3.87,0,0,1-2.52,2.52l-22.892,7.255a3.87,3.87,0,0,0-2.267,5.471Z" transform="translate(3108.099 -2091.212)" fill="#e7eaec"/>
      <path id="Path_19" data-name="Path 19" d="M-3056.874,2323.385l-.112-.352L-3096.2,2310.6a3.86,3.86,0,0,1-.411,1.379l-11.055,21.322a3.871,3.871,0,0,0,2.267,5.471l22.892,7.255a3.87,3.87,0,0,1,2.52,2.52l7.26,22.9a3.87,3.87,0,0,0,5.471,2.266l21.322-11.059a3.865,3.865,0,0,1,1.376-.41Z" transform="translate(3108.099 -2246.251)" fill="#c0c7ca"/>
      <path id="Path_20" data-name="Path 20" d="M-2825.611,2333.3l-11.055-21.322a3.86,3.86,0,0,1-.41-1.379l-32.19,10.206-7.021,2.226-2.264,7.141-10.168,32.068a3.867,3.867,0,0,1,1.384.411l21.322,11.054a3.87,3.87,0,0,0,5.471-2.267l7.255-22.891a3.869,3.869,0,0,1,2.52-2.52l22.892-7.255A3.87,3.87,0,0,0-2825.611,2333.3Z" transform="translate(2953.068 -2246.251)" fill="#d82e3e"/>
      <path id="Path_21" data-name="Path 21" d="M-2562.231,2239.656a24.056,24.056,0,0,0,9.4-1.762,26.658,26.658,0,0,0,7.551-4.782l12.585,12.082-.335.336a40.907,40.907,0,0,1-13.089,8.474,41.918,41.918,0,0,1-16.109,3.1,40.662,40.662,0,0,1-16.192-3.272,42.086,42.086,0,0,1-13.34-8.977,43.253,43.253,0,0,1-9.061-13.34,40.164,40.164,0,0,1-3.356-16.36,40.772,40.772,0,0,1,3.356-16.445,43.057,43.057,0,0,1,9.061-13.424,42.127,42.127,0,0,1,13.34-8.977,40.671,40.671,0,0,1,16.192-3.272,41.963,41.963,0,0,1,16.109,3.1,41,41,0,0,1,13.089,8.474l.335.335-12.585,12.082a26.653,26.653,0,0,0-7.551-4.782,24.06,24.06,0,0,0-9.4-1.762,23.582,23.582,0,0,0-9.481,1.929,25.007,25.007,0,0,0-7.8,5.286,24.7,24.7,0,0,0-5.286,7.886,24.148,24.148,0,0,0-1.93,9.565,23.543,23.543,0,0,0,1.93,9.48,24.92,24.92,0,0,0,5.286,7.8,24.915,24.915,0,0,0,7.8,5.286A23.537,23.537,0,0,0-2562.231,2239.656Z" transform="translate(2751.989 -2149.038)" fill="#f3f3f3"/>
      <path id="Path_22" data-name="Path 22" d="M-2317.212,2099.08l-.046.046V2204.84h17.451V2099.08Z" transform="translate(2549.225 -2096.772)" fill="#f3f3f3"/>
      <path id="Path_23" data-name="Path 23" d="M-2143.953,2199.2a42.159,42.159,0,0,0-8.979-13.339,42.153,42.153,0,0,0-13.339-8.978,41.083,41.083,0,0,0-16.361-3.272,41.069,41.069,0,0,0-16.358,3.272,42.09,42.09,0,0,0-13.339,8.978,42.109,42.109,0,0,0-8.978,13.339,41.1,41.1,0,0,0-3.272,16.362,40.659,40.659,0,0,0,3.272,16.191,42.038,42.038,0,0,0,8.978,13.339,43.215,43.215,0,0,0,13.339,9.063,40.187,40.187,0,0,0,16.358,3.354c1.043,0,5.745,0,14.814-.623v-17.209c-.666.128-13.7.381-14.814.381a23.506,23.506,0,0,1-9.48-1.93,24.9,24.9,0,0,1-7.8-5.283,24.853,24.853,0,0,1-5.286-7.8,23.5,23.5,0,0,1-1.929-9.48,24.51,24.51,0,0,1,1.929-9.733,24.63,24.63,0,0,1,5.286-7.885,24.962,24.962,0,0,1,7.8-5.287,23.559,23.559,0,0,1,9.48-1.93,23.574,23.574,0,0,1,9.483,1.93,25.037,25.037,0,0,1,7.8,5.287,24.738,24.738,0,0,1,5.286,7.885,24.565,24.565,0,0,1,1.93,9.733v41.948h17.451v-41.948A41.111,41.111,0,0,0-2143.953,2199.2Z" transform="translate(2483.731 -2149.443)" fill="#f3f3f3"/>
      <path id="Path_24" data-name="Path 24" d="M-1825.4,2199.369a43.442,43.442,0,0,0-9.06-13.34,43.146,43.146,0,0,0-13.425-9.06,40.389,40.389,0,0,0-16.276-3.357,40.19,40.19,0,0,0-16.361,3.357,42.278,42.278,0,0,0-13.258,9.06,42.875,42.875,0,0,0-8.893,13.34,40.672,40.672,0,0,0-3.272,16.194v64.575h17.116v-64.575a23.544,23.544,0,0,1,1.93-9.48,24.9,24.9,0,0,1,5.286-7.8,24.7,24.7,0,0,1,7.886-5.286,24.207,24.207,0,0,1,9.565-1.929,24.2,24.2,0,0,1,9.563,1.929,24.755,24.755,0,0,1,7.889,5.286,25.058,25.058,0,0,1,5.283,7.8,23.548,23.548,0,0,1,1.929,9.48,24.581,24.581,0,0,1-1.929,9.733,24.783,24.783,0,0,1-5.283,7.885,24.755,24.755,0,0,1-7.889,5.287,24.145,24.145,0,0,1-9.562,1.93c-1.851,0-13.323.095-14.862-.364v16.914c1.631.177,13.106.563,14.862.563a41.277,41.277,0,0,0,16.276-3.272,41.929,41.929,0,0,0,13.425-8.975,43.409,43.409,0,0,0,9.06-13.343,40.233,40.233,0,0,0,3.357-16.358A39.855,39.855,0,0,0-1825.4,2199.369Z" transform="translate(2258.558 -2149.443)" fill="#f3f3f3"/>
      <rect id="Rectangle_3" data-name="Rectangle 3" width="0.112" height="21.904" transform="translate(325.599 86.163)" fill="#f3f3f3"/>
    </g>
  </g>
</svg>
