<svg xmlns="http://www.w3.org/2000/svg" width="436.199" height="130.601" viewBox="0 0 436.199 130.601">
  <g id="Group_9" data-name="Group 9" transform="translate(-142 -316.898)">
    <path id="Path_69" data-name="Path 69" d="M-2870.3,578.3l.208.067,38.975,12.357a3.854,3.854,0,0,1,.41-1.38l11.047-21.307a3.867,3.867,0,0,0-2.265-5.467l-22.875-7.25a3.867,3.867,0,0,1-2.518-2.518l-7.25-22.875a3.867,3.867,0,0,0-5.467-2.265l-21.306,11.047a3.861,3.861,0,0,1-1.383.41Z" transform="translate(3089.021 -210.327)" fill="#f93640"/>
    <path id="Path_71" data-name="Path 71" d="M-3090.616,589.335a3.864,3.864,0,0,1,.411,1.38l39.183-12.424,12.421-39.181a3.863,3.863,0,0,1-1.375-.41l-21.306-11.051a3.868,3.868,0,0,0-5.467,2.264L-3074,552.794a3.867,3.867,0,0,1-2.518,2.518l-22.875,7.25a3.868,3.868,0,0,0-2.265,5.467Z" transform="translate(3244.099 -210.314)" fill="#133d51"/>
    <path id="Path_72" data-name="Path 72" d="M-3050.911,759.376l-.111-.351-39.183-12.422a3.864,3.864,0,0,1-.411,1.378l-11.047,21.307a3.868,3.868,0,0,0,2.265,5.467l22.875,7.25a3.867,3.867,0,0,1,2.518,2.518l7.255,22.881a3.867,3.867,0,0,0,5.467,2.264l21.306-11.051a3.858,3.858,0,0,1,1.375-.41Z" transform="translate(3244.099 -365.4)" fill="#051e2c"/>
    <path id="Path_70" data-name="Path 70" d="M-2819.656,769.287-2830.7,747.98a3.863,3.863,0,0,1-.41-1.378l-32.167,10.2-7.016,2.224-2.262,7.136L-2882.72,798.2a3.867,3.867,0,0,1,1.383.41l21.306,11.047a3.867,3.867,0,0,0,5.467-2.265l7.25-22.875A3.867,3.867,0,0,1-2844.8,782l22.875-7.25A3.867,3.867,0,0,0-2819.656,769.287Z" transform="translate(3089.021 -365.4)" fill="#d82e3e"/>
    <path id="Path_68" data-name="Path 68" d="M-2556.261,675.608a24.039,24.039,0,0,0,9.39-1.76,26.642,26.642,0,0,0,7.546-4.779l12.576,12.073-.335.335a40.862,40.862,0,0,1-13.079,8.468,41.889,41.889,0,0,1-16.1,3.1,40.637,40.637,0,0,1-16.181-3.27,42.059,42.059,0,0,1-13.331-8.97,43.232,43.232,0,0,1-9.055-13.331,40.138,40.138,0,0,1-3.353-16.349,40.743,40.743,0,0,1,3.353-16.433,43.03,43.03,0,0,1,9.055-13.414,42.1,42.1,0,0,1,13.331-8.971,40.637,40.637,0,0,1,16.181-3.27,41.938,41.938,0,0,1,16.1,3.1,40.96,40.96,0,0,1,13.079,8.468l.335.335-12.576,12.073a26.628,26.628,0,0,0-7.546-4.779,24.039,24.039,0,0,0-9.39-1.761,23.564,23.564,0,0,0-9.474,1.928,24.989,24.989,0,0,0-7.8,5.282,24.678,24.678,0,0,0-5.282,7.881,24.124,24.124,0,0,0-1.928,9.558,23.52,23.52,0,0,0,1.928,9.474,24.9,24.9,0,0,0,5.282,7.8,24.9,24.9,0,0,0,7.8,5.282A23.519,23.519,0,0,0-2556.261,675.608Z" transform="translate(2887.882 -268.158)" fill="#133d51"/>
    <path id="Path_67" data-name="Path 67" d="M-2311.212,535.08l-.046.046V640.764h17.439V535.08Z" transform="translate(2685.058 -215.876)" fill="#133d51"/>
    <path id="Path_65" data-name="Path 65" d="M-2138.011,635.183a42.127,42.127,0,0,0-8.972-13.33,42.129,42.129,0,0,0-13.33-8.972,41.055,41.055,0,0,0-16.35-3.269,41.041,41.041,0,0,0-16.346,3.269,42.059,42.059,0,0,0-13.33,8.972,42.075,42.075,0,0,0-8.972,13.33,41.069,41.069,0,0,0-3.269,16.35,40.628,40.628,0,0,0,3.269,16.179,42,42,0,0,0,8.972,13.33,43.177,43.177,0,0,0,13.33,9.057,40.158,40.158,0,0,0,16.346,3.351c1.043,0,5.741,0,14.8-.622v-17.2c-.666.128-13.685.381-14.8.381a23.485,23.485,0,0,1-9.473-1.928,24.877,24.877,0,0,1-7.794-5.279,24.84,24.84,0,0,1-5.283-7.8,23.485,23.485,0,0,1-1.928-9.473,24.494,24.494,0,0,1,1.928-9.726,24.615,24.615,0,0,1,5.283-7.88,24.941,24.941,0,0,1,7.794-5.283,23.54,23.54,0,0,1,9.473-1.928,23.555,23.555,0,0,1,9.477,1.928,25.012,25.012,0,0,1,7.794,5.283,24.719,24.719,0,0,1,5.283,7.88,24.549,24.549,0,0,1,1.928,9.726V693.45h17.438V651.533A41.073,41.073,0,0,0-2138.011,635.183Z" transform="translate(2619.544 -268.562)" fill="#133d51"/>
    <path id="Path_66" data-name="Path 66" d="M-1819.459,635.35a43.412,43.412,0,0,0-9.054-13.33,43.112,43.112,0,0,0-13.415-9.053,40.361,40.361,0,0,0-16.264-3.355,40.163,40.163,0,0,0-16.35,3.355,42.244,42.244,0,0,0-13.248,9.053,42.845,42.845,0,0,0-8.886,13.33,40.643,40.643,0,0,0-3.269,16.183v64.528h17.1V651.533a23.53,23.53,0,0,1,1.928-9.474,24.881,24.881,0,0,1,5.283-7.8,24.687,24.687,0,0,1,7.88-5.283,24.189,24.189,0,0,1,9.559-1.928,24.188,24.188,0,0,1,9.556,1.928,24.74,24.74,0,0,1,7.883,5.283,25.033,25.033,0,0,1,5.279,7.8,23.528,23.528,0,0,1,1.928,9.474,24.561,24.561,0,0,1-1.928,9.726,24.766,24.766,0,0,1-5.279,7.88,24.74,24.74,0,0,1-7.883,5.283,24.131,24.131,0,0,1-9.556,1.928c-1.849,0-13.313.095-14.851-.364v16.9c1.63.177,13.1.563,14.851.563a41.246,41.246,0,0,0,16.264-3.269,41.9,41.9,0,0,0,13.415-8.969,43.385,43.385,0,0,0,9.054-13.333,40.2,40.2,0,0,0,3.355-16.346A39.827,39.827,0,0,0-1819.459,635.35Z" transform="translate(2394.304 -268.562)" fill="#133d51"/>
    <rect id="Rectangle_9" data-name="Rectangle 9" width="0.111" height="21.888" transform="translate(467.364 402.999)" fill="#051e2c"/>
  </g>
</svg>
