<svg xmlns="http://www.w3.org/2000/svg" width="436.199" height="130.601" viewBox="0 0 436.199 130.601">
  <g id="Group_10" data-name="Group 10" transform="translate(1533.099 -530.213)">
    <path id="Path_25" data-name="Path 25" d="M-1301.3,581.3l.208.066,38.976,12.357a3.847,3.847,0,0,1,.41-1.38l11.047-21.307a3.867,3.867,0,0,0-2.265-5.467l-22.875-7.25a3.867,3.867,0,0,1-2.518-2.518l-7.25-22.875a3.867,3.867,0,0,0-5.467-2.265l-21.306,11.047a3.861,3.861,0,0,1-1.383.41Z" transform="translate(-155.078 -0.013)" fill="#fff"/>
    <path id="Path_26" data-name="Path 26" d="M-1521.616,592.335a3.866,3.866,0,0,1,.411,1.38l39.183-12.424,12.421-39.181a3.861,3.861,0,0,1-1.375-.41l-21.307-11.051a3.867,3.867,0,0,0-5.467,2.264L-1505,555.794a3.867,3.867,0,0,1-2.518,2.518l-22.875,7.25a3.868,3.868,0,0,0-2.265,5.467Z" fill="#e7eaec"/>
    <path id="Path_27" data-name="Path 27" d="M-1481.911,762.376l-.111-.351-39.183-12.422a3.86,3.86,0,0,1-.411,1.378l-11.047,21.307a3.868,3.868,0,0,0,2.265,5.467l22.875,7.25a3.867,3.867,0,0,1,2.518,2.518l7.255,22.881a3.867,3.867,0,0,0,5.467,2.264l21.307-11.051a3.856,3.856,0,0,1,1.375-.41Z" transform="translate(0 -155.085)" fill="#c2cace"/>
    <path id="Path_28" data-name="Path 28" d="M-1250.656,772.287-1261.7,750.98a3.853,3.853,0,0,1-.41-1.378l-32.167,10.2-7.016,2.224-2.262,7.136L-1313.72,801.2a3.866,3.866,0,0,1,1.383.41l21.306,11.047a3.867,3.867,0,0,0,5.467-2.265l7.25-22.875A3.867,3.867,0,0,1-1275.8,785l22.875-7.25A3.867,3.867,0,0,0-1250.656,772.287Z" transform="translate(-155.078 -155.085)" fill="#e7ebec"/>
    <g id="Group_1" data-name="Group 1" transform="translate(-1385.398 532.519)">
      <path id="Path_29" data-name="Path 29" d="M-987.261,678.608a24.041,24.041,0,0,0,9.39-1.76,26.645,26.645,0,0,0,7.546-4.779l12.576,12.073-.335.335a40.861,40.861,0,0,1-13.079,8.468,41.887,41.887,0,0,1-16.1,3.1,40.639,40.639,0,0,1-16.181-3.27,42.061,42.061,0,0,1-13.331-8.971,43.225,43.225,0,0,1-9.054-13.331,40.136,40.136,0,0,1-3.354-16.349,40.741,40.741,0,0,1,3.354-16.433,43.027,43.027,0,0,1,9.054-13.414,42.1,42.1,0,0,1,13.331-8.97,40.638,40.638,0,0,1,16.181-3.27,41.937,41.937,0,0,1,16.1,3.1,40.96,40.96,0,0,1,13.079,8.468l.335.335-12.576,12.073a26.631,26.631,0,0,0-7.546-4.779,24.039,24.039,0,0,0-9.39-1.761,23.564,23.564,0,0,0-9.474,1.928,24.986,24.986,0,0,0-7.8,5.282,24.678,24.678,0,0,0-5.282,7.881,24.129,24.129,0,0,0-1.928,9.558,23.524,23.524,0,0,0,1.928,9.474,24.9,24.9,0,0,0,5.282,7.8,24.9,24.9,0,0,0,7.8,5.282A23.518,23.518,0,0,0-987.261,678.608Z" transform="translate(1029.181 -590.362)" fill="#f3f5f6"/>
      <path id="Path_30" data-name="Path 30" d="M-742.212,538.08l-.046.046V643.764h17.439V538.08Z" transform="translate(826.357 -538.08)" fill="#f3f5f6"/>
      <path id="Path_31" data-name="Path 31" d="M-569.011,638.183a42.131,42.131,0,0,0-8.972-13.33,42.127,42.127,0,0,0-13.33-8.972,41.057,41.057,0,0,0-16.35-3.269,41.043,41.043,0,0,0-16.346,3.269,42.055,42.055,0,0,0-13.33,8.972,42.071,42.071,0,0,0-8.972,13.33,41.069,41.069,0,0,0-3.269,16.35,40.628,40.628,0,0,0,3.269,16.179,42,42,0,0,0,8.972,13.33,43.178,43.178,0,0,0,13.33,9.057,40.16,40.16,0,0,0,16.346,3.351c1.043,0,5.741,0,14.8-.622v-17.2c-.666.128-13.685.381-14.8.381a23.486,23.486,0,0,1-9.473-1.928,24.875,24.875,0,0,1-7.794-5.279,24.844,24.844,0,0,1-5.283-7.8,23.486,23.486,0,0,1-1.928-9.474,24.5,24.5,0,0,1,1.928-9.726,24.618,24.618,0,0,1,5.283-7.88,24.94,24.94,0,0,1,7.794-5.283,23.539,23.539,0,0,1,9.473-1.928,23.554,23.554,0,0,1,9.477,1.928,25.011,25.011,0,0,1,7.795,5.283,24.724,24.724,0,0,1,5.283,7.88,24.551,24.551,0,0,1,1.928,9.726V696.45h17.438V654.533A41.073,41.073,0,0,0-569.011,638.183Z" transform="translate(760.843 -590.766)" fill="#f3f5f6"/>
      <path id="Path_32" data-name="Path 32" d="M-250.459,638.35a43.412,43.412,0,0,0-9.054-13.33,43.112,43.112,0,0,0-13.415-9.053,40.361,40.361,0,0,0-16.264-3.355,40.163,40.163,0,0,0-16.35,3.355,42.246,42.246,0,0,0-13.248,9.053,42.847,42.847,0,0,0-8.886,13.33,40.641,40.641,0,0,0-3.269,16.183v64.528h17.1V654.533a23.529,23.529,0,0,1,1.928-9.474,24.881,24.881,0,0,1,5.283-7.8,24.686,24.686,0,0,1,7.88-5.283,24.189,24.189,0,0,1,9.559-1.928,24.186,24.186,0,0,1,9.556,1.928,24.739,24.739,0,0,1,7.883,5.283,25.036,25.036,0,0,1,5.279,7.8,23.529,23.529,0,0,1,1.928,9.474,24.562,24.562,0,0,1-1.928,9.726,24.769,24.769,0,0,1-5.279,7.88,24.741,24.741,0,0,1-7.883,5.283,24.13,24.13,0,0,1-9.556,1.928c-1.85,0-13.313.095-14.851-.364v16.9c1.63.177,13.1.563,14.851.563a41.246,41.246,0,0,0,16.264-3.269,41.9,41.9,0,0,0,13.415-8.969,43.383,43.383,0,0,0,9.054-13.333,40.2,40.2,0,0,0,3.355-16.346A39.826,39.826,0,0,0-250.459,638.35Z" transform="translate(535.603 -590.766)" fill="#f3f5f6"/>
      <rect id="Rectangle_4" data-name="Rectangle 4" width="0.111" height="21.888" transform="translate(177.663 83.795)" fill="#f3f5f6"/>
    </g>
  </g>
</svg>
